<svg width="3352" height="2942" viewBox="0 0 3352 2942" fill="none" xmlns="http://www.w3.org/2000/svg">
<path d="M1346.51 1257.5C103.713 1337.5 -58.9866 2348.17 15.0134 2843.5H2965.01L2256.01 0C2264.01 407.5 2589.31 1177.5 1346.51 1257.5Z" fill="#6DF7E9"/>
<path d="M2415.01 59C2423.01 466.5 2819.8 1355 1577 1435C673.987 1493.13 168.367 1829.71 263 2270.5C298.609 2436.36 691 2442 656 2840.5L3124.01 2902.5L2415.01 59Z" fill="#6CD9D2"/>
<path d="M2642.3 98C2650.3 505.5 3061.8 1721 1819 1801C915.987 1859.13 327.867 1699.71 422.5 2140.5C458.109 2306.36 1140 2164.5 883.291 2879.5L3351.3 2941.5L2642.3 98Z" fill="#5AA6A1"/>
</svg>
