<svg width="483" height="483" viewBox="0 0 483 483" fill="none" xmlns="http://www.w3.org/2000/svg">
<path d="M468.756 13.241C457.966 2.427 442.108 -2.186 427.299 0.979995C379.603 11.191 289.56 38.355 222.379 105.522C202.143 125.756 183.815 146.814 167.676 167.916L14.908 181.96C8.73198 182.524 3.42898 186.62 1.31898 192.462C-0.79302 198.302 0.66198 204.831 5.05598 209.225L100.011 304.196C97.196 323.657 99.385 340.117 106.156 353.199L69.344 390.003C63.089 396.258 63.089 406.391 69.344 412.648C72.471 415.776 76.569 417.338 80.667 417.338C84.764 417.338 88.861 415.775 91.989 412.648L128.77 375.867C137.981 380.66 148.771 383.326 161.405 383.326C166.191 383.326 171.274 382.833 176.482 382.122L272.029 477.679C275.079 480.736 279.176 482.371 283.352 482.371C285.181 482.371 287.027 482.058 288.793 481.417C294.643 479.306 298.723 474.004 299.302 467.82L313.344 314.864C334.549 298.71 355.848 280.203 376.445 259.607C443.626 192.434 470.79 102.39 481.002 54.678C484.206 39.606 479.624 24.118 468.756 13.241ZM434.009 32.296C434.916 32.1 435.854 32.006 436.776 32.006C440.296 32.006 443.611 33.375 446.112 35.87C449.272 39.052 450.616 43.587 449.678 47.989C447.316 58.99 444.001 72.416 439.404 87.318C428.614 84.918 418.433 79.82 410.271 71.657C402.138 63.517 397.057 53.345 394.665 42.578C409.566 37.981 422.999 34.65 434.009 32.296ZM51.844 210.727L143.437 202.306C132.662 219.071 123.437 235.646 116.273 251.597C113.694 257.352 111.503 262.92 109.487 268.393L51.844 210.727ZM154.008 350.625L190.007 314.635C190.023 314.611 190.037 314.587 190.053 314.565L190.726 313.893C196.98 307.636 196.98 297.495 190.726 291.248C184.471 284.993 174.338 284.993 168.081 291.248L131.301 328.037C129.096 312.821 133.818 290.74 145.5 264.71C149.815 255.085 155.023 245.185 160.841 235.146C183.313 234.997 205.284 243.785 221.735 260.253C238.264 276.774 247.07 298.863 246.866 321.389C207.052 344.456 174.165 353.518 154.008 350.625ZM270.528 430.887L212.479 372.83C233.293 365.27 255.797 353.806 278.971 338.982L270.528 430.887ZM353.801 236.96C321.869 268.876 290.811 293.593 262.506 311.795C260.426 288.471 250.277 266.139 233.061 248.929C215.906 231.774 193.668 221.633 170.429 219.514C189.93 189.153 215.326 157.853 245.023 128.164C285.995 87.2 336.741 62.477 379.151 47.706C382.373 60.795 389.034 73.055 398.948 82.977C408.878 92.923 421.186 99.5 434.306 102.722C419.544 145.149 394.819 195.948 353.801 236.96Z" fill="white"/>
<path d="M263.037 146.18C253.31 155.9 247.946 168.825 247.946 182.571C247.932 196.317 253.279 209.241 263.007 218.96C272.734 228.689 285.666 234.051 299.412 234.051C313.174 234.051 326.09 228.688 335.802 218.968C345.529 209.249 350.893 196.325 350.893 182.571C350.893 168.825 345.528 155.893 335.802 146.164C316.379 126.743 282.459 126.727 263.037 146.18ZM324.479 207.646C311.093 221.048 287.746 221.04 274.328 207.638C267.634 200.944 263.959 192.047 263.959 182.578C263.959 173.109 267.65 164.203 274.359 157.503C281.051 150.801 289.95 147.11 299.426 147.11C308.903 147.11 317.785 150.793 324.478 157.486C331.188 164.194 334.878 173.101 334.878 182.57C334.879 192.039 331.188 200.944 324.479 207.646Z" fill="white"/>
</svg>
