<svg width="508" height="512" viewBox="0 0 508 512" fill="none" xmlns="http://www.w3.org/2000/svg">
<path d="M132.105 451.353C124.415 451.353 116.725 448.917 110.012 444.042C96.57 434.28 91.209 417.767 96.357 401.971L134.75 284.153L34.31 211.637C20.835 201.908 15.432 185.404 20.544 169.59C25.656 153.776 39.698 143.558 56.318 143.558H180.123L217.895 26.088C222.984 10.261 237.016 0.021 253.642 0H253.691C270.295 0 284.329 10.201 289.452 26.002L327.564 143.558H340.987C346.51 143.558 350.987 148.036 350.987 153.558C350.987 159.08 346.51 163.558 340.987 163.558H320.293C315.959 163.558 312.117 160.765 310.78 156.642L270.426 32.17C267.517 23.196 259.876 20 253.687 20C253.68 20 253.673 20 253.666 20C247.473 20.008 239.826 23.219 236.935 32.21L196.932 156.619C195.602 160.754 191.756 163.558 187.412 163.558H56.318C46.877 163.558 41.478 169.852 39.574 175.742C37.67 181.633 38.363 189.895 46.017 195.423L152.371 272.208C155.895 274.752 157.372 279.281 156.025 283.414L115.372 408.169C112.448 417.142 116.756 424.224 121.764 427.859C126.771 431.495 134.84 433.399 142.466 427.843L248.515 350.577C252.02 348.022 256.774 348.018 260.283 350.57L365.958 427.377C373.595 432.927 381.662 431.01 386.666 427.365C391.669 423.719 395.967 416.628 393.024 407.657L352.301 283.527C350.947 279.397 352.414 274.865 355.933 272.314L462.011 195.4C469.646 189.864 470.328 181.606 468.42 175.724C466.512 169.842 461.113 163.557 451.682 163.557H430.988C425.465 163.557 420.988 159.079 420.988 153.557C420.988 148.035 425.465 143.557 430.988 143.557H451.682C468.284 143.557 482.322 153.761 487.444 169.553C492.567 185.345 487.192 201.846 473.751 211.591L373.579 284.223L412.028 401.422C417.209 417.214 411.877 433.742 398.444 443.529C385.012 453.315 367.645 453.326 354.2 443.553L254.411 371.025L154.244 444.005C147.522 448.904 139.814 451.353 132.105 451.353V451.353Z" fill="white"/>
<path d="M254 512C248.477 512 244 507.522 244 502V421.123C244 415.601 248.477 411.123 254 411.123C259.523 411.123 264 415.601 264 421.123V502C264 507.522 259.523 512 254 512Z" fill="white"/>
<path d="M497.933 334.776C496.909 334.776 495.868 334.617 494.841 334.284L417.923 309.292C412.671 307.585 409.796 301.943 411.503 296.691C413.209 291.439 418.851 288.568 424.104 290.27L501.022 315.262C506.274 316.969 509.149 322.611 507.442 327.863C506.068 332.089 502.148 334.776 497.933 334.776Z" fill="white"/>
<path d="M357.211 113.447C355.173 113.447 353.117 112.826 351.341 111.536C346.873 108.29 345.883 102.036 349.129 97.568L396.667 32.137C399.914 27.669 406.166 26.678 410.635 29.925C415.103 33.171 416.093 39.425 412.847 43.893L365.309 109.324C363.353 112.018 360.303 113.447 357.211 113.447Z" fill="white"/>
<path d="M150.789 113.447C147.696 113.447 144.647 112.017 142.69 109.324L95.152 43.894C91.906 39.426 92.897 33.172 97.364 29.926C101.833 26.678 108.086 27.67 111.332 32.138L158.87 97.569C162.116 102.037 161.125 108.291 156.658 111.537C154.884 112.826 152.827 113.447 150.789 113.447V113.447Z" fill="white"/>
<path d="M10.067 334.776C5.851 334.776 1.932 332.089 0.558 327.863C-1.148 322.611 1.726 316.969 6.978 315.262L83.896 290.27C89.15 288.564 94.79 291.438 96.497 296.691C98.204 301.943 95.329 307.585 90.077 309.292L13.16 334.284C12.133 334.617 11.091 334.776 10.067 334.776V334.776Z" fill="white"/>
<path d="M385.99 163.56C383.36 163.56 380.78 162.491 378.92 160.63C377.06 158.77 375.99 156.19 375.99 153.56C375.99 150.93 377.06 148.35 378.92 146.491C380.78 144.631 383.35 143.56 385.99 143.56C388.62 143.56 391.2 144.63 393.06 146.491C394.92 148.35 395.99 150.93 395.99 153.56C395.99 156.19 394.92 158.77 393.06 160.63C391.2 162.49 388.62 163.56 385.99 163.56Z" fill="white"/>
</svg>
