<svg width="513" height="468" viewBox="0 0 513 468" fill="none" xmlns="http://www.w3.org/2000/svg">
<path d="M442.917 282.757H69.082C64.549 282.757 60.877 286.43 60.877 290.962C60.877 295.494 64.55 299.167 69.082 299.167H442.919C447.452 299.167 451.124 295.494 451.124 290.962C451.124 286.43 447.45 282.757 442.917 282.757Z" fill="white"/>
<path d="M437.717 230.913H408.134C392.672 162.907 333.821 113.5 264.206 109.88V75.736C281.187 71.975 293.93 56.807 293.93 38.71C293.93 17.797 276.915 0.783005 256 0.783005C235.085 0.783005 218.068 17.797 218.068 38.71C218.068 56.807 230.811 71.975 247.795 75.736V109.88C178.18 113.5 119.328 162.906 103.867 230.913H74.283C33.324 230.913 0 264.237 0 305.197V322.231C0 338.102 12.913 351.014 28.784 351.014H32.584V371.962C32.584 387.833 45.497 400.743 61.368 400.743H135.868C161.725 441.868 207.319 467.222 256.003 467.222C304.687 467.222 350.281 441.868 376.138 400.743H450.638C466.509 400.743 479.422 387.831 479.422 371.962V351.014H483.221C499.092 351.014 512.005 338.102 512.005 322.231V305.197C512 264.237 478.676 230.913 437.717 230.913ZM234.479 38.71C234.479 26.845 244.134 17.193 256 17.193C267.866 17.193 277.519 26.846 277.519 38.71C277.519 50.576 267.865 60.229 256 60.229C244.133 60.229 234.479 50.575 234.479 38.71ZM256 126.069C320.201 126.069 375.583 169.599 391.254 230.913H339.087V209.052C339.087 193.18 326.174 180.267 310.303 180.267H201.698C185.826 180.267 172.913 193.18 172.913 209.052V230.913H120.744C136.417 169.599 191.799 126.069 256 126.069ZM322.678 209.053V230.914H322.677H189.325V209.053C189.325 202.231 194.876 196.679 201.699 196.679H310.304C317.127 196.678 322.678 202.229 322.678 209.053ZM256 450.813C216.509 450.813 179.315 431.944 155.781 400.744H356.22C332.685 431.944 295.491 450.813 256 450.813ZM483.216 334.603H406.132C401.599 334.603 397.927 338.276 397.927 342.808C397.927 347.34 401.6 351.013 406.132 351.013H463.007V371.961C463.007 378.782 457.457 384.332 450.634 384.332H371.512H140.487H61.366C54.544 384.332 48.993 378.782 48.993 371.961V351.013H378.778C383.31 351.013 386.983 347.34 386.983 342.808C386.983 338.276 383.31 334.603 378.778 334.603H28.784C21.962 334.603 16.411 329.053 16.411 322.231V305.197C16.411 273.286 42.372 247.323 74.283 247.323H110.56H181.12H330.883H401.441H437.717C469.628 247.323 495.589 273.286 495.589 305.197V322.231H495.59C495.59 329.052 490.04 334.603 483.216 334.603Z" fill="white"/>
</svg>
